<svg width="16" height="18" fill="none" xmlns="http://www.w3.org/2000/svg"><path d="M15.117 15.313h-4.95V2.687h1.937V7.68c-.582.134-1.019.674-1.019 1.319 0 .745.582 1.35 1.298 1.35.715 0 1.298-.605 1.298-1.35 0-.645-.437-1.185-1.02-1.319V2.687h1.702c.487 0 .882-.412.882-.919v-.85c0-.506-.395-.918-.882-.918H1.637C1.151 0 .755.412.755.919v.85c0 .506.396.918.882.918h4.196v12.626H.882c-.487 0-.883.412-.883.919v.85c0 .506.396.918.883.918h14.234c.487 0 .883-.412.883-.919v-.85c0-.506-.396-.918-.883-.918zM13.123 9c0 .425-.332.77-.74.77s-.74-.345-.74-.77c0-.424.332-.77.74-.77s.74.346.74.77zM1.637 1.768v-.85c0-.186.273-.25.452-.25h12.086c.18 0 .325.064.325.25v.85c0 .186-.146.236-.325.236H2.09c-.179 0-.452-.05-.452-.236zm4.917 11.484h.312s.279-.13.279-.29c0-.16-.125-.29-.279-.29h-.312v-2.06h2.943c.154 0 1.097-.166.356-.326.74-.16-.202-.255-.356-.255H6.554V7.97h2.58c.154 0-.279-.13-.279-.29 0-.161.433-.291.279-.291h-2.58V2.687h2.943v2.06H6.31c-.154 0 0-.03 0 .13 0 .451-.163.451-.163.451h3.35v2.06h-.363a.285.285 0 00-.279.291c0 .16.125.29.279.29h.363v4.702h-2.63c-.155 0 .278.13.278.291 0 .16-.433.29-.279.29h2.631v2.061H6.554v-2.06zm8.764 3.83c0 .186-.282.232-.46.232H1.038c-.18 0-.325-.046-.325-.233v-.849c0-.186.146-.236.325-.236h13.954c.179 0 .325.05.325.236v.85z" fill="#777"/></svg>