<svg width="18" height="18" fill="none" xmlns="http://www.w3.org/2000/svg"><path d="M18 9a8.941 8.941 0 01-2.636 6.364A8.941 8.941 0 019 18a8.943 8.943 0 01-4.694-1.318l1.032-1.032A7.545 7.545 0 009 16.594c4.187 0 7.594-3.407 7.594-7.594a7.546 7.546 0 00-.944-3.662l1.032-1.032A8.942 8.942 0 0118 9zM1.025 17.97l-.995-.994 2.128-2.128A8.933 8.933 0 010 9a8.94 8.94 0 012.636-6.364A8.941 8.941 0 019 0c2.168 0 4.219.762 5.848 2.158L16.974.03l.995.995L1.025 17.97zm2.134-4.123L13.847 3.159A7.558 7.558 0 009 1.406C4.813 1.406 1.406 4.813 1.406 9c0 1.841.659 3.53 1.753 4.847z" fill="#777"/></svg>