<svg width="18" height="18" fill="none" xmlns="http://www.w3.org/2000/svg"><path d="M17.846 8.062L10.337.554A1.878 1.878 0 009 0c-.506 0-.98.197-1.337.554L.154 8.062a.527.527 0 000 .746l.565.565a2.122 2.122 0 002.105.536v7.564c0 .29.236.527.528.527h11.297a.527.527 0 00.527-.527V9.909a2.122 2.122 0 002.104-.536l.565-.565a.528.528 0 000-.746zM14.12 9.218v5.468h-2.334v-3.427A2.785 2.785 0 009 8.473a2.785 2.785 0 00-2.787 2.786v3.427H3.88V9.218L9 4.098l5.121 5.12zM3.88 15.741h2.334v1.204H3.88v-1.204zm3.389 1.204V11.26A1.73 1.73 0 019 9.527a1.73 1.73 0 011.732 1.732v5.686H7.268zm4.519 0v-1.204h2.334v1.204h-2.334zm4.748-8.318a1.07 1.07 0 01-1.513 0l-.01-.01-5.64-5.638a.527.527 0 00-.745 0L2.99 8.617a1.07 1.07 0 01-1.523.01l-.193-.192L8.41 1.299a.836.836 0 011.182 0l7.136 7.136-.192.192z" fill="#777"/></svg>