<svg width="18" height="18" fill="none" xmlns="http://www.w3.org/2000/svg"><path d="M16.343 14.686h-4.54A7.875 7.875 0 0015.74 7.87C15.74 3.53 12.21 0 7.87 0S0 3.53 0 7.87s3.53 7.87 7.87 7.87h8.473a.603.603 0 010 1.205H9A.527.527 0 109 18h7.343a1.658 1.658 0 000-3.314zm-8.473 0A6.86 6.86 0 017 14.63l5.762-3.327.727.42a6.813 6.813 0 01-5.619 2.963zM4.048 13.51l6.268-3.619 1.391.804-6.188 3.573a6.802 6.802 0 01-1.471-.758zM3.506 2.64c.423-.354.89-.658 1.391-.902v7.24l-1.391.803V2.64zm2.446-1.31a6.765 6.765 0 011.391-.255v6.49l-1.391.804V1.33zm8.734 6.54a6.9 6.9 0 01-.018.492l-6.27-3.62V3.135l6.188 3.573c.066.378.1.766.1 1.162zM8.398 5.96l6.096 3.519c-.113.464-.273.91-.476 1.332l-5.62-3.245V5.959zm5.761-.716L8.398 1.917v-.842a6.83 6.83 0 015.761 4.169zM2.451 3.742v6.648l-.729.42a6.775 6.775 0 01-.667-2.94A6.78 6.78 0 012.45 3.742zm-.2 7.981l5.62-3.244 1.39.803L3.17 12.8a6.872 6.872 0 01-.917-1.077z" fill="#777"/></svg>