<svg width="46" height="38" fill="none" xmlns="http://www.w3.org/2000/svg"><path d="M5.768 35.43c-.059-.71-.483-1.41-1.648-1.469.718-.094 1.707-1.752 1.283-2.983-.353-.995-1.413-.604-2.036-.415-.118.948.153 2.688-.895 2.913-.047-.497.047-1.326-.082-2.19-.248-1.433-1.99-.77-2.39-.592.153 1.586.13 2.012.13 3.919.011.65-.06 1.68 0 2.237.164 1.48 1.918 1.09 2.4.58 0-.627-.011-1.906-.046-2.616.777-.06.918.166.941 1.823.012 1.658 1.966 1.35 2.543.782-.2-.616-.141-1.397-.2-1.99zm1.021-1.22c0 3.434 1.766 3.718 3.002 3.682 1.141 0 3.013-.32 3.025-3.682-.012-2.877-1.283-3.895-2.99-3.895-1.801 0-3.037 1.113-3.037 3.895zm3.037-1.965c.13 0 .624-.19.624 1.882 0 1.35-.212 2.12-.636 2.12-.353 0-.635-.32-.6-2.12 0-1.634.412-1.882.612-1.882zm5.412.248c0 .675-.012 1.421.023 3.718.012.923.047 1.681 1.107 1.657.942 0 1.177-.378 1.283-.497.035-1.03-.035-3.28-.059-4.842.259 0 .506 0 .73-.012.753-.024 1.012-.474 1-1.101-.011-.71-.588-1.09-1.389-1.09h-2.236c-1.777.012-1.895.012-2.036 0-.33 1.398-.13 2.144 1.224 2.167h.353zm8.932-2.119c-.823-.083-2.812-.047-4.19.012.154 1.575.165 3.6.142 5.032.023 1.373-.095 2.332 1.342 2.427.941.07 1.471.07 2.319 0 1.153-.095 1.624-.722 1.07-2.096-.953.142-1.836.178-2.389.071 0-.166-.023-.687 0-.817.53 0 1.107-.023 1.613-.023 1.047 0 .941-1.694-.012-1.694-.683-.035-.989.036-1.624-.023v-.935c.718-.06 1.035-.024 1.636 0 1.13.035 1.13-1.717.094-1.954zm3.678-2.581c-.777.509-.73 1.279-.177 1.74.624.45 1.848.308 2.672-.059.754-.343 1.048-1.125.248-1.705-1.19.628-1.978.308-2.743.024zm4.19 3.587c0-.71-.447-1.053-1.153-1.053-.824 0-1.248.213-1.495.97-.294.924-.73 2.345-.977 3.327 0-.426.07-2.936.07-3.244 0-.781-.411-1.053-1.106-1.053-.482 0-1.342.307-1.342.307.07.533.13.841.141 1.54.024.734 0 1.906.071 4.226.035 1.137.4 1.516 1.318 1.48 1.648-.059 1.754-3.114 2.202-4.227 0 .51-.024 2.274-.024 2.866 0 .805.07 1.361 1 1.361.801 0 1.26-.272 1.401-.52-.094-.356-.13-2.51-.13-4.204 0-.746.013-1.397.024-1.776zm6.82 4.05c-.059-.71-.483-1.41-1.648-1.469.718-.094 1.707-1.752 1.283-2.983-.353-.995-1.413-.604-2.037-.415-.117.948.153 2.688-.894 2.913-.047-.497.047-1.326-.082-2.19-.248-1.433-1.99-.77-2.39-.592.153 1.586.13 2.012.13 3.919.011.65-.06 1.68 0 2.237.164 1.48 1.918 1.09 2.4.58 0-.627-.011-1.906-.046-2.616.777-.06.918.166.941 1.823.012 1.658 1.966 1.35 2.543.782-.2-.616-.141-1.397-.2-1.99zM46 37.371c-.165-.462-.153-.687-.188-1.35-.094-1.728-.118-3.398-.683-4.546-.953-1.693-3.414-1.231-4.602-.379-.107 2.048-.46 2.89-.683 5.174-.165 1.67 1.224 2.131 2.519 1.314 0-.201 0-.9.059-1.065.153 0 .73.012.953.012 0 0-.059.686.27 1.053.59.675 1.943.474 2.355-.213zm-3.496-2.332c.082-.64.082-1.966.118-2.25.059-.047.459-.023.506.036.141.556.141 1.574.176 2.214h-.8z" fill="#1A212F"/><path d="M28.476 5.112L33.278.306c.653-.654 1.77-.19 1.77.734v12.842c0-4.165-3.296-6.699-6.572-8.77z" fill="#FF7236"/><path d="M35.047 13.882c0 6.458-5.23 11.694-11.682 11.694S11.683 20.34 11.683 13.882c0-6.458 5.23-10.962 11.682-10.962s11.683 4.504 11.683 10.962z" fill="#FFAA50"/><path d="M18.254 13.882c0-5.628 3.229-9.77 7.528-10.742-.78-.144-1.588-.22-2.417-.22-2.15 0-4.157.509-5.887 1.415L13.451.306c-.653-.654-1.77-.19-1.77.734v12.842c0-.264 0-.262 0 0 0 6.458 5.23 11.693 11.683 11.693.829 0 1.637-.089 2.417-.253-4.3-1.115-7.528-5.812-7.528-11.44z" fill="#FF7236"/><path d="M20.81 21.19c1.41 0 2.555-.981 2.555-2.192 0-1.211-1.144-2.193-2.556-2.193-1.411 0-2.555.982-2.555 2.193 0 1.21 1.144 2.192 2.555 2.192zm5.11 0c1.412 0 2.556-.981 2.556-2.192 0-1.211-1.144-2.193-2.555-2.193-1.412 0-2.556.982-2.556 2.193 0 1.21 1.144 2.192 2.556 2.192z" fill="#FFFDFB"/><path d="M23.365 18.998a1.461 1.461 0 10-.001-2.922 1.461 1.461 0 00.001 2.922z" fill="#FF913C"/><path d="M18.984 14.613a.73.73 0 01-.73-.731v-.73a.73.73 0 111.46 0v.73a.73.73 0 01-.73.73zm8.762 0a.73.73 0 01-.73-.731v-.73a.73.73 0 111.46 0v.73a.73.73 0 01-.73.73z" fill="#1A212F"/></svg>