<svg width="32" height="26" fill="none" xmlns="http://www.w3.org/2000/svg"><path d="M31.131 10.445c-.012-.268-.17-.765-1.088-1.082L5.572.94c-1.255-.432-2.647.183-3.103 1.37l-.663 1.723-1.49 3.876c-.457 1.188.192 2.506 1.447 2.938L8.895 13.3c-.135.78.09 1.551.583 2.141l-1.52 3.951a.49.49 0 01-.459.305H3.05v-1.375c0-.759-.653-1.375-1.454-1.375H.627a.472.472 0 00-.484.458v7.333c0 .254.217.459.484.459h.968c.801 0 1.453-.617 1.453-1.375v-1.375H7.5c1.422 0 2.704-.85 3.19-2.114l1.487-3.868a2.895 2.895 0 002.083-1.319l8.335 2.869c.272.094.551.138.826.138.832 0 1.623-.41 2.066-1.093l.956.33a1.018 1.018 0 00.74-.031.931.931 0 00.5-.517l1.326-3.447a.894.894 0 00-.413-1.1l1.552-.684c.885-.391.996-.9.984-1.167zM2.08 23.823a.472.472 0 01-.485.458h-.484v-6.417h.484c.267 0 .485.206.485.459v5.5zm7.698-3.803c-.347.904-1.263 1.511-2.279 1.511H3.05v-.917H7.5c.61 0 1.16-.364 1.37-.907l1.39-3.615a3.034 3.034 0 00.9.337L9.78 20.02zm2.053-4.447l-.034.001a2.052 2.052 0 01-.696-.112 1.965 1.965 0 01-.754-.47 1.764 1.764 0 01-.518-1.37l3.496 1.204a1.95 1.95 0 01-1.494.747zm16.267-2.49l-1.325 3.446-.91-.314 1.256-3.267.257-.114.722.248zm1.64-2.302l-2.589 1.142-.62.274h-.001l-.727.321c-.853.377-2.32.437-3.205.133L4.04 6.266c-.252-.087.38.35.289.587-.091.238-.872.188-.62.274l18.556 6.385c.487.168 1.088.25 1.7.25.671 0 1.355-.098 1.922-.289l-1.1 2.86c-.274.712-1.109 1.08-1.862.821L2.094 9.985c-.753-.259-1.142-1.05-.868-1.762l.828-2.155a2.39 2.39 0 001.2.902l.454.157a.492.492 0 00.621-.274.452.452 0 00-.29-.587l-.455-.157c-.752-.26-1.142-1.05-.868-1.762l.166-.431.497-1.292c.274-.713 1.109-1.082 1.862-.822l24.47 8.423c.312.107.427.219.45.26-.02.043-.124.163-.423.296z" fill="#FFFDFB"/><path d="M27.15 11.923l2.588-1.142c.3-.133.404-.253.423-.296-.023-.041-.138-.153-.45-.26L5.242 1.802c-.753-.26-1.588.11-1.862.822l-.497 1.292-.166.43c-.274.713.116 1.504.868 1.763l.456.157 18.556 6.385c.884.304 2.352.244 3.205-.133l.727-.32.62-.274h.001z" fill="#FFFDFB"/></svg>