<svg width="22" height="38" fill="none" xmlns="http://www.w3.org/2000/svg"><path d="M20.68 9.201a.54.54 0 110 1.081h-4.832a.54.54 0 010-1.08h4.832zm-1.94 2.98a.54.54 0 00-.54-.541h-2.352a.54.54 0 100 1.08H18.2a.54.54 0 00.54-.54zm-3.433 2.438c0 .298.242.54.54.54h4.833a.54.54 0 100-1.08h-4.832a.54.54 0 00-.54.54zm3.433 2.44a.54.54 0 00-.54-.541h-2.352a.54.54 0 100 1.08H18.2a.54.54 0 00.54-.54zm-3.433 2.438c0 .298.242.54.54.54h4.833a.54.54 0 100-1.08h-4.832a.54.54 0 00-.54.54zm.922 9.81c0 4.315-3.465 7.825-7.724 7.825-4.26 0-7.725-3.51-7.725-7.824a7.807 7.807 0 013.815-6.742V4.828c0-2.183 1.754-3.96 3.91-3.96 2.155 0 3.91 1.777 3.91 3.96v17.738c2.364 1.404 3.814 3.945 3.814 6.742zm-1.072 0c0-2.371-1.301-4.98-3.397-6.059l-.417-.214V4.829c0-1.332-1.524-2.88-2.838-2.88-1.315 0-2.839 1.548-2.839 2.88v18.205l-.417.214c-2.096 1.08-3.397 3.688-3.397 6.06 0 3.462 3.235 6.743 6.653 6.743 3.417 0 6.652-3.281 6.652-6.743zm-1.725 0c0 2.753-2.21 4.991-4.927 4.991-2.717 0-4.927-2.238-4.927-4.99 0-2.256 1.958-4.236 4.113-4.817l.283-.076v-9a.531.531 0 111.062 0v9l.283.076c2.155.58 4.113 2.562 4.113 4.817zm-4.249-3.333c-.117-.529-.622-.404-1.157-.28-1.868.428-3.172 2.082-3.172 4.023 0 .55 0 1.139.695 1.139.37 0 .455-.613.455-1.163 0-.987.603-2.46 2.022-2.79.528-.122 1.276-.394 1.157-.93z" fill="#FFFDFB"/></svg>