<svg width="28" height="30" fill="none" xmlns="http://www.w3.org/2000/svg"><path d="M10.423 9.906a3.088 3.088 0 00-.247 1.229c.005.852.36 1.66 1.002 2.276a3.611 3.611 0 002.407.995 3.715 3.715 0 002.006-.52 3.707 3.707 0 002.007.52 3.617 3.617 0 002.39-.978c.64-.606 1.001-1.403 1.018-2.247a3.082 3.082 0 00-.354-1.504c-.225-.43-2.044-2.296-2.687-2.98-.162-.171.271.428.088.578-.183.15-.78-.088-.618.083.582.62 2.236 2.323 2.423 2.682.184.352.273.73.265 1.126-.027 1.314-1.148 2.374-2.552 2.414a2.76 2.76 0 01-1.707-.524.466.466 0 00-.545 0 2.762 2.762 0 01-1.707.524c-1.4-.04-2.545-1.139-2.552-2.45-.002-.317.06-.627.184-.919.287-.676.906-1.44 2.072-2.555 1.095-1.048 2.866-1.176 4.119-.298.195.137.472.1.618-.083a.396.396 0 00-.088-.578c-1.607-1.126-3.877-.962-5.28.381-1.27 1.214-1.926 2.034-2.262 2.828zm2.837-4.153c1.135 0 2.059-1.105 2.059-2.464 0-1.36-.924-2.465-2.06-2.465-1.135 0-2.058 1.106-2.058 2.465 0 1.359.923 2.464 2.059 2.464zm0-4.103c.637 0 1.175.75 1.175 1.639 0 .888-.538 1.638-1.175 1.638s-1.176-.75-1.176-1.638c0-.888.539-1.639 1.176-1.639z" fill="#FFFDFB"/><path d="M13.26 1.65c.637 0 1.175.75 1.175 1.639 0 .888-.538 1.638-1.175 1.638s-1.176-.75-1.176-1.638c0-.888.539-1.639 1.176-1.639zM9.04 8.707c.917 0 1.635-.846 1.635-1.926s-.718-1.925-1.634-1.925c-.916 0-1.634.846-1.634 1.925 0 1.08.718 1.926 1.634 1.926zm0-3.025c.408 0 .751.504.751 1.1 0 .595-.343 1.099-.75 1.099s-.75-.504-.75-1.1c0-.595.343-1.099.75-1.099z" fill="#FFFDFB"/><path d="M9.04 5.682c.408 0 .751.504.751 1.1 0 .595-.343 1.099-.75 1.099s-.75-.504-.75-1.1c0-.595.343-1.099.75-1.099zm12.934 3.025c.916 0 1.634-.846 1.634-1.926s-.718-1.925-1.634-1.925c-.916 0-1.634.846-1.634 1.925 0 1.08.718 1.926 1.634 1.926zm0-3.025c.407 0 .75.504.75 1.1 0 .595-.343 1.099-.75 1.099s-.75-.504-.75-1.1c0-.595.343-1.099.75-1.099z" fill="#FFFDFB"/><path d="M21.974 5.682c.407 0 .75.504.75 1.1 0 .595-.343 1.099-.75 1.099s-.75-.504-.75-1.1c0-.595.343-1.099.75-1.099zm-3.544.071c1.135 0 2.06-1.105 2.06-2.464 0-1.36-.925-2.465-2.06-2.465S16.37 1.93 16.37 3.29c0 1.359.925 2.464 2.06 2.464zm0-4.103c.637 0 1.176.75 1.176 1.639 0 .888-.539 1.638-1.176 1.638-.637 0-1.175-.75-1.175-1.638 0-.888.538-1.639 1.175-1.639z" fill="#FFFDFB"/><path d="M18.43 1.65c.637 0 1.176.75 1.176 1.639 0 .888-.539 1.638-1.176 1.638-.637 0-1.175-.75-1.175-1.638 0-.888.538-1.639 1.175-1.639zm8.393 12.32a2.441 2.441 0 00-1.677-.649c-.633 0-1.229.23-1.677.65l-2.6 2.43a2.442 2.442 0 00-1.755-.728h-3.725c-.244 0 .467.185.467.413 0 .229-.71.414-.467.414h3.725c.82 0 1.488.623 1.488 1.39 0 .768-.668 1.392-1.488 1.392h-3.725c-.244 0-.441.185-.441.413 0 .228.197.413.441.413h3.725c1.307 0 2.371-.995 2.371-2.217a2.08 2.08 0 00-.144-.763l.015-.013 2.738-2.56a1.564 1.564 0 012.104 0 1.33 1.33 0 010 1.967l-5.49 5.133h-5.063c-.244 0 .21.185.21.413 0 .228-.243.413 0 .413h5.036c.117 0 .23-.043.313-.12l5.619-5.255a2.119 2.119 0 000-3.136z" fill="#FFFDFB"/><path d="M15.969 21.655h-2.012a.458.458 0 00-.31.12l-1.39 1.282-3.394-3.174a2.522 2.522 0 01-.098-.697c0-1.477 1.286-2.68 2.867-2.68a.47.47 0 00.077-.006h3.883c.244 0 .442-.185.442-.413 0-.229-.198-.413-.442-.413h-4.31a.464.464 0 00-.198.044c-1.771.243-3.142 1.648-3.2 3.358l-.356-.334a.464.464 0 00-.625 0l-2.34 2.189a.423.423 0 00-.042.044l-3.918 4.1a.398.398 0 00-.113.274l-.006 3.394c-.001.228.196.413.44.414l7.28.019h.002c.117 0 .23-.044.312-.121l4.707-4.401a.4.4 0 00.13-.292.4.4 0 00-.13-.292l-.4-.375 1.314-1.214h1.83c.244 0 .442-.185.442-.413 0-.228-.198-.413-.442-.413zM8.023 28.35l-6.655-.017.006-2.824 3.52-3.683 5.053 4.725-1.924 1.8zm2.576-2.408l-5.073-4.743 1.69-1.58 5.072 4.744L10.6 25.94z" fill="#FFFDFB"/></svg>