<svg width="32" height="26" fill="none" xmlns="http://www.w3.org/2000/svg"><path d="M31.216 3.303a.88.88 0 00-.8-.134c-1.02.308-1.789.92-2.158 1.26a3.86 3.86 0 00-2.102 0c-.374-.344-1.156-.967-2.196-1.27a.838.838 0 00-.857.234.717.717 0 00-.137.721c.259.736.679 1.896.826 2.301a2.573 2.573 0 00-.119.633c-.013.21-.009.41.01.602l-.29.57c-.19.375-.571.635-1.013.691-1.606.206-4.733.62-7.627 1.091-3.746.609-5.23 1.01-5.866 1.256A5.318 5.318 0 006.67 9.48c-1.367-.593-3.654-1.883-3.612-3.858.038-1.787.766-2.843 1.371-3.414.258-.244.394-.58.372-.92a1.19 1.19 0 00-.489-.875 1.37 1.37 0 00-1.816.163C.966 2.26.6 4.594.516 5.834.433 7.085.83 8.242 1.694 9.274c.62.74 1.465 1.399 2.514 1.96 1.016.543 1.751 1.41 2.069 2.441a.91.91 0 01.039.279l-.01.477a5.43 5.43 0 01-.06.696l-.348 2.307c-.137.905-.763 1.666-1.64 2.084-.608.29-.956.908-.865 1.538l.637 4.403a.484.484 0 00.49.398h2.62a.541.541 0 00.297-.083.443.443 0 00.193-.499l-.029-.094c-.205-.687-.768-1.213-1.484-1.416l-.123-.942a.582.582 0 01.393-.614l2.503-.924a1.176 1.176 0 01-.004.081c-.025.436-.043.828-.055 1.166-.016.464.175.914.529 1.242l2.1 1.948a.514.514 0 00.35.135h3.037c.26 0 .481-.198.495-.44.05-.842-.59-1.57-1.49-1.697l-.868-.122-.358-.523a.714.714 0 01.014-.837l2.369-3.217c.72-.207 3.755-1.02 5.535-.635.024.217.088.43.193.629l3.453 6.584a.5.5 0 00.445.258h2.348a.544.544 0 00.294-.08.444.444 0 00.2-.49l-.16-.592c-.153-.571-.613-1.009-1.192-1.18l.575-4.64c.024-.195.086-.382.183-.555a50.946 50.946 0 011.742-2.88c.536-.81.881-1.739.997-2.689.177-1.446.524-3.292.61-3.741.381-.506.557-1.176.509-1.962a2.573 2.573 0 00-.119-.633c.148-.409.574-1.584.833-2.32a.705.705 0 00-.24-.792zM6.02 21.355c-.683.252-1.099.902-1.01 1.579l.165 1.267c.028.21.207.376.434.4.287.032.545.154.737.338H4.953l-.579-4.005a.578.578 0 01.337-.6c1.1-.524 1.881-1.484 2.131-2.598.89.974 1.526 1.895 1.835 2.64l-2.656.98zm21.761-6.397a51.781 51.781 0 00-1.775 2.935c-.155.274-.253.57-.29.876l-.272 2.19-.598-2.745a.892.892 0 01.178-.746l1.364-1.72a4.482 4.482 0 00.965-3.296c-.028-.252-.271-.435-.543-.41-.272.027-.47.253-.441.505a3.615 3.615 0 01-.779 2.657l-1.364 1.72a1.76 1.76 0 00-.35 1.472l1.217 5.59a.49.49 0 00.486.369c.368 0 .688.231.778.563l.005.02h-1.419l-3.317-6.325a.883.883 0 01-.096-.518l.49-4.041c.031-.252-.164-.48-.436-.508-.272-.028-.516.153-.547.405l-.427 3.512c-1.615-.284-3.836.155-5.097.467a2.197 2.197 0 00-.497-1.777l-.723-.866a.521.521 0 00-.695-.082.437.437 0 00-.088.644l.723.866c.405.485.426 1.15.054 1.657l-2.465 3.348a1.577 1.577 0 00-.033 1.848l.48.699a.5.5 0 00.343.207l1.091.154a.77.77 0 01.526.31h-2.215l-1.955-1.813a.735.735 0 01-.24-.563c.012-.33.03-.716.054-1.143.11-1.47-1.439-3.375-2.372-4.38a.904.904 0 01-.248-.636l.056-2.642a3.414 3.414 0 00-.081-.338c-.39-1.262-1.286-2.322-2.527-2.985C1.909 8.945 1.422 7.14 1.504 5.89c.175-2.627 1.17-4.087 1.75-4.723a.332.332 0 01.44-.04.285.285 0 01.118.213.277.277 0 01-.09.223c-.73.69-1.61 1.95-1.654 4.04-.053 2.494 2.598 4.02 4.183 4.707a4.287 4.287 0 012.03 1.798.497.497 0 00.333.216.525.525 0 00.4-.093c.516-.382 4.36-1.242 13.501-2.411a2.327 2.327 0 001.592-.916c.091.137.196.264.316.378.501.481 1.22.734 2.082.734l1.298-.001h.009c.465.01.89-.053 1.264-.184a56.18 56.18 0 00-.437 2.815 5.39 5.39 0 01-.857 2.311zm1.853-8.702a.428.428 0 00.001.319c.066.163.105.34.116.525.042.674-.122 1.208-.473 1.545-.323.31-.824.466-1.448.453h-.014c-.005 0-1.226-.002-1.25 0-.616.01-1.112-.146-1.433-.453-.35-.337-.514-.87-.473-1.545.012-.185.051-.362.117-.525a.428.428 0 00.001-.316v-.004c-.048-.13-.454-1.247-.755-2.095a4.919 4.919 0 011.614 1.097.52.52 0 00.572.13 2.772 2.772 0 011.994 0c.2.077.432.025.571-.13.007-.007.648-.705 1.615-1.097a377.42 377.42 0 01-.755 2.096z" fill="#FFFDFB"/><path d="M24.778 6.255l.001.004c.291-.759.291-.759.859-1.002a4.919 4.919 0 00-1.614-1.097c.301.848.707 1.966.754 2.095zM30.39 4.16a4.917 4.917 0 00-1.615 1.098c.82.24.83.416.86.978v.02c.047-.128.453-1.248.755-2.096zM3.253 1.168c-.578.636-1.574 2.096-1.749 4.723l.564-.288c.044-2.089.924-3.35 1.655-4.04a.277.277 0 00.09-.222.285.285 0 00-.12-.212.332.332 0 00-.44.039z" fill="#FFFDFB"/></svg>