<svg width="34" height="22" fill="none" xmlns="http://www.w3.org/2000/svg"><path d="M33.703 12.354c-.147-.148-2.937-3.635-9.032-3.747-.588-1.038-2.828-4.414-6.462-4.414h-.11l-1.616-3.116a.572.572 0 00-.477-.297h-2.497c-.22 0-.404.111-.478.297l-1.468 3.079h-.478c-.146 0-3.598-.26-7.196 4.414H1.1c-.257 0-.478.186-.551.445-.037.223-1.138 5.565.697 7.865.588.704 1.359 1.075 2.314 1.075h.77a3.778 3.778 0 003.746 3.265 3.778 3.778 0 003.745-3.265H22.54a3.778 3.778 0 003.745 3.265c1.91 0 3.488-1.41 3.745-3.265h3.231c.294 0 .551-.26.551-.556v-4.711c0-.112-.037-.26-.11-.334zM18.209 5.269c2.57 0 4.332 2.151 5.14 3.338H15.38V5.27h2.828zm-4.333-3.376h1.8l1.174 2.3h-4.076l1.102-2.3zm-2.827 3.376h3.268v3.338H5.32c2.974-3.45 5.654-3.338 5.728-3.338zM8.075 20.144c-1.469 0-2.68-1.224-2.68-2.708 0-1.484 1.211-2.708 2.68-2.708 1.468 0 2.68 1.224 2.68 2.708.037 1.484-1.175 2.708-2.68 2.708zm18.211 0c-1.468 0-2.68-1.224-2.68-2.708 0-1.484 1.212-2.708 2.68-2.708 1.469 0 2.68 1.224 2.68 2.708 0 1.484-1.174 2.708-2.68 2.708zm6.426-3.264h-2.68a3.778 3.778 0 00-3.746-3.265 3.778 3.778 0 00-3.745 3.265H11.82a3.778 3.778 0 00-3.745-3.265A3.778 3.778 0 004.33 16.88h-.771c-.625 0-1.102-.223-1.47-.668-1.137-1.447-.844-4.823-.55-6.492H24.34c5.104 0 7.784 2.56 8.372 3.19v3.97z" fill="#FFFDFB"/><path d="M13.876 1.893h1.8l1.174 2.3h-4.076l1.102-2.3zM8.075 20.144c-1.469 0-2.68-1.224-2.68-2.708 0-1.484 1.211-2.708 2.68-2.708 1.468 0 2.68 1.224 2.68 2.708.037 1.484-1.175 2.708-2.68 2.708zm18.211 0c-1.468 0-2.68-1.224-2.68-2.708 0-1.484 1.212-2.708 2.68-2.708 1.469 0 2.68 1.224 2.68 2.708 0 1.484-1.174 2.708-2.68 2.708z" fill="#FFFDFB"/></svg>