<svg width="24" height="24" fill="none" xmlns="http://www.w3.org/2000/svg"><path d="M12 24c6.627 0 12-5.373 12-12S18.627 0 12 0 0 5.373 0 12s5.373 12 12 12z" fill="#1A212F"/><path fill-rule="evenodd" clip-rule="evenodd" d="M11.547 17.263h.942s.284-.031.43-.188c.133-.144.129-.413.129-.413s-.019-1.264.568-1.45c.578-.184 1.32 1.221 2.108 1.761.595.409 1.047.32 1.047.32l2.104-.03s1.101-.068.579-.933c-.043-.071-.304-.64-1.564-1.81-1.32-1.225-1.143-1.027.446-3.146.968-1.29 1.355-2.077 1.234-2.415-.115-.32-.827-.236-.827-.236l-2.37.015s-.175-.024-.305.054c-.128.076-.21.254-.21.254s-.374.998-.875 1.847c-1.055 1.792-1.476 1.886-1.649 1.775-.4-.26-.3-1.041-.3-1.597 0-1.736.263-2.46-.514-2.647-.257-.063-.447-.104-1.105-.11-.846-.01-1.561.002-1.966.2-.27.133-.478.427-.351.444.156.02.511.095.7.351.242.33.233 1.072.233 1.072s.14 2.044-.325 2.298c-.32.174-.758-.181-1.698-1.807a15.113 15.113 0 01-.846-1.752s-.07-.172-.195-.264a.974.974 0 00-.365-.147l-2.251.014s-.338.01-.462.157c-.11.13-.009.4-.009.4s1.763 4.125 3.759 6.203c1.83 1.905 3.908 1.78 3.908 1.78z" fill="#FFFDFB"/></svg>